<svg xmlns="http://www.w3.org/2000/svg" xmlns:xlink="http://www.w3.org/1999/xlink" version="1.1" id="Layer_1" x="0px" y="0px" viewBox="0 0 260 341.02" style="enable-background:new 0 0 260 341.02;" xml:space="preserve">
<style type="text/css">
	
	.st0{fill:#B2B3B3;}
	.st1{fill-rule:evenodd;clip-rule:evenodd;fill:#FFFFFF;}
	.st2{fill-rule:evenodd;clip-rule:evenodd;fill:#FAFAFA;}
	.st3{fill-rule:evenodd;clip-rule:evenodd;fill:#F3F3F3;}
	.st4{fill-rule:evenodd;clip-rule:evenodd;fill:#2c58dd;}
	.st5{fill-rule:evenodd;clip-rule:evenodd;fill:#234ac2;}
	.st6{fill-rule:evenodd;clip-rule:evenodd;fill:#2c58dd;}
	.st7{fill:#2c58dd;}

</style>
<path class="st0" d="M64.32,149.11c0.71,0.41,1.34,1.13,1.79,1.95c0.45,0.82,0.73,1.76,0.73,2.62c0,0.57-0.12,1.04-0.34,1.41  c-0.14,0.26-0.35,0.47-0.6,0.62s-0.54,0.22-0.83,0.22c-0.37,0-0.78-0.12-1.2-0.36c-0.71-0.41-1.34-1.13-1.79-1.95  c-0.45-0.82-0.73-1.76-0.73-2.62c0-0.57,0.12-1.05,0.33-1.41c0.29-0.52,0.84-0.85,1.43-0.84C63.49,148.75,63.9,148.87,64.32,149.11z   M65.34,151.49c-0.38-0.69-0.9-1.29-1.46-1.61c-0.28-0.16-0.54-0.24-0.76-0.24c-0.13,0-0.27,0.03-0.38,0.1  c-0.12,0.07-0.22,0.18-0.29,0.3c-0.14,0.23-0.22,0.56-0.22,0.97c0,0.71,0.24,1.5,0.62,2.2c0.38,0.69,0.9,1.29,1.46,1.61  c0.28,0.17,0.53,0.24,0.76,0.24c0.28,0.01,0.54-0.15,0.67-0.4c0.14-0.23,0.22-0.56,0.22-0.97  C65.96,152.97,65.72,152.18,65.34,151.49L65.34,151.49z"/>
<path class="st0" d="M65.35,155.54c-0.11-0.22-0.02-0.48,0.19-0.59s0.46-0.03,0.58,0.17l2.21,4.02c0.12,0.21,0.04,0.48-0.17,0.6  c-0.21,0.12-0.48,0.04-0.59-0.17l0,0L65.35,155.54L65.35,155.54z M73.47,148.7c-0.14,0.08-0.32,0.03-0.4-0.1  c-0.08-0.14-0.03-0.32,0.11-0.4l4.86-2.81c0.14-0.08,0.32-0.03,0.4,0.11s0.03,0.32-0.11,0.4L73.47,148.7L73.47,148.7z M73.47,169.55  c-0.14,0.08-0.32,0.03-0.4-0.11l0,0c-0.08-0.14-0.03-0.32,0.11-0.4l4.86-2.81c0.14-0.08,0.32-0.03,0.4,0.11s0.03,0.32-0.11,0.4  L73.47,169.55z"/>
<path class="st1" d="M34.88,206.84h-0.07v15.29c0.01,2.22,1.39,4.34,4.21,5.92l50.79,28.43c6.22,3.48,17.16,3.06,24.31-0.95  l99.82-55.88c4.05-2.27,6.05-5.21,5.89-7.98v-15.31h-0.06c0-2.21-1.36-4.31-4.15-5.87l-50.79-28.43c-6.22-3.48-17.28-2.99-24.58,1.1  l-99.28,55.58C36.84,201.06,34.76,204.05,34.88,206.84L34.88,206.84z"/>
<path class="st0" d="M32.64,206.84c0-0.21,0.03-0.41,0.08-0.6c0.08-1.7,0.74-3.41,1.95-5.02c1.2-1.59,2.95-3.09,5.25-4.37  l99.28-55.57c3.94-2.21,8.88-3.44,13.66-3.66c4.84-0.22,9.57,0.62,13.04,2.56l50.79,28.43c1.65,0.93,2.91,2.04,3.79,3.28  c0.85,1.2,1.32,2.5,1.43,3.86c0.06,0.2,0.09,0.41,0.09,0.62v15.31l0,0c0.08,1.87-0.55,3.77-1.85,5.54  c-1.17,1.58-2.89,3.06-5.14,4.32l-99.82,55.88c-3.87,2.17-8.75,3.37-13.49,3.55c-4.78,0.18-9.48-0.67-12.94-2.61l-50.79-28.43  c-1.67-0.93-2.94-2.06-3.82-3.3c-0.99-1.39-1.49-2.92-1.49-4.51h-0.01L32.64,206.84L32.64,206.84z M36.97,207.36v14.77h-0.01  c0,0.68,0.23,1.36,0.69,2.01c0.52,0.72,1.32,1.41,2.42,2.03l50.79,28.43c2.76,1.54,6.64,2.22,10.68,2.06  c4.08-0.16,8.25-1.17,11.52-3.01l99.82-55.88c1.72-0.96,2.98-2.03,3.79-3.12c0.72-0.97,1.05-1.95,1-2.85c0-0.04-0.01-0.08-0.01-0.12  l0,0v-14.82c-0.05-0.21-0.06-0.43-0.05-0.64c-0.03-0.63-0.26-1.25-0.68-1.85c-0.5-0.71-1.29-1.39-2.37-1.99l-50.79-28.43  c-2.76-1.54-6.66-2.2-10.74-2.02c-4.13,0.18-8.38,1.24-11.73,3.11l-99.29,55.58c-1.76,0.98-3.06,2.08-3.91,3.21  c-0.76,1.01-1.12,2.01-1.09,2.93C37.04,206.96,37.02,207.17,36.97,207.36L36.97,207.36z"/>
<path class="st2" d="M38.85,206.84H34.8v15.29c0.01,2.22,1.39,4.34,4.21,5.92l50.79,28.43c6.22,3.48,17.16,3.06,24.31-0.95  l99.82-55.88c4.05-2.27,6.05-5.21,5.89-7.98v-15.31h-5.79l-49.2-27.54c-6.22-3.48-17.16-3.06-24.31,0.94L40.7,205.65  C40.06,206.01,39.44,206.41,38.85,206.84z M93.3,232.28l-10.41-5.83l60.98-34.1c5.47-3.06,13.83-3.38,18.58-0.72l10.42,5.83  l-60.98,34.09C106.42,234.61,98.06,234.94,93.3,232.28L93.3,232.28z"/>
<path class="st0" d="M38.85,207.12h-3.77v15.01c0,1.07,0.35,2.12,1.04,3.09c0.67,0.95,1.68,1.82,3.03,2.58l50.79,28.43  c3.06,1.72,7.3,2.47,11.66,2.3s8.84-1.26,12.38-3.24l99.82-55.88c1.95-1.09,3.41-2.34,4.38-3.65c0.99-1.34,1.45-2.73,1.37-4.07  v-15.04h-5.51c-0.05,0-0.11-0.02-0.15-0.04l-49.19-27.54c-3.07-1.72-7.3-2.47-11.66-2.3s-8.84,1.26-12.38,3.24L40.84,205.9  c-0.32,0.18-0.64,0.37-0.95,0.57l-0.01,0.01c-0.3,0.19-0.58,0.39-0.86,0.59C38.97,207.1,38.91,207.12,38.85,207.12z M34.81,206.56  h3.96c0.25-0.19,0.53-0.37,0.81-0.56l0.01-0.01c0.31-0.2,0.64-0.4,0.98-0.59l99.82-55.88c3.61-2.02,8.18-3.14,12.63-3.32  c4.46-0.18,8.8,0.6,11.96,2.37l49.14,27.51h5.72c0.16,0,0.28,0.13,0.28,0.28v15.31c0.08,1.47-0.42,2.98-1.48,4.42  c-1.01,1.37-2.53,2.67-4.55,3.8l-99.82,55.88c-3.61,2.02-8.18,3.14-12.63,3.31c-4.46,0.17-8.8-0.6-11.96-2.37l-50.8-28.41  c-1.42-0.8-2.49-1.73-3.21-2.75c-0.76-1.07-1.14-2.23-1.14-3.42v-15.29C34.53,206.69,34.65,206.56,34.81,206.56L34.81,206.56z   M93.17,232.52l-10.41-5.83c-0.14-0.07-0.19-0.24-0.11-0.38c0.03-0.05,0.07-0.09,0.12-0.12l60.97-34.08  c2.77-1.55,6.28-2.41,9.69-2.54c3.42-0.13,6.75,0.46,9.17,1.82l10.42,5.83c0.14,0.07,0.18,0.25,0.11,0.38  c-0.03,0.05-0.07,0.09-0.13,0.12l-60.97,34.08c-2.77,1.55-6.27,2.41-9.69,2.54C98.92,234.47,95.59,233.88,93.17,232.52L93.17,232.52  z M83.46,226.45l9.98,5.59c2.33,1.3,5.56,1.88,8.88,1.75s6.74-0.96,9.43-2.47l60.55-33.85l-9.98-5.59  c-2.33-1.31-5.56-1.88-8.88-1.75c-3.33,0.13-6.74,0.96-9.43,2.47L83.46,226.45L83.46,226.45z"/>
<path class="st1" d="M89.81,240.93L39.02,212.5c-6.22-3.48-5.34-9.68,1.96-13.76l99.28-55.57c7.3-4.08,18.36-4.58,24.58-1.09  l50.79,28.43c6.22,3.48,5.34,9.67-1.96,13.76l-99.28,55.57C107.09,243.92,96.03,244.42,89.81,240.93L89.81,240.93z"/>
<path class="st0" d="M89.67,241.18l-50.79-28.43c-1.67-0.94-2.85-2.07-3.54-3.31c-0.51-0.9-0.77-1.93-0.75-2.97  c0.03-1.02,0.33-2.06,0.9-3.07c0.98-1.76,2.78-3.46,5.35-4.9l99.28-55.57c3.69-2.06,8.32-3.22,12.82-3.42s8.88,0.56,12.03,2.32  l50.79,28.43c1.67,0.94,2.85,2.07,3.54,3.31c0.53,0.94,0.77,1.95,0.75,2.97c-0.03,1.02-0.33,2.06-0.9,3.07  c-0.98,1.76-2.78,3.46-5.35,4.9l-99.28,55.57c-3.69,2.06-8.32,3.22-12.82,3.42C97.2,243.71,92.82,242.95,89.67,241.18L89.67,241.18z   M39.15,212.26l50.79,28.43c3.06,1.72,7.33,2.45,11.74,2.26c4.42-0.2,8.96-1.33,12.57-3.35l99.28-55.57  c2.48-1.39,4.2-3.01,5.13-4.69c0.52-0.94,0.8-1.89,0.83-2.81c0.02-0.94-0.21-1.87-0.68-2.68c-0.64-1.15-1.75-2.21-3.33-3.09  l-50.79-28.43c-3.06-1.72-7.33-2.45-11.74-2.25s-8.96,1.33-12.57,3.35L41.1,199.01c-2.48,1.38-4.2,3.01-5.13,4.68  c-0.52,0.94-0.8,1.89-0.83,2.81c-0.02,0.92,0.2,1.83,0.68,2.68C36.47,210.32,37.58,211.38,39.15,212.26L39.15,212.26z"/>
<path class="st3" d="M82.89,226.45l-28.4-15.9c-4.76-2.66-4.18-7.35,1.29-10.4l88.1-49.25c5.47-3.06,13.82-3.38,18.58-0.72  l38.82,21.73c4.76,2.66,4.18,7.35-1.29,10.4l-88.1,49.25c-5.47,3.06-13.83,3.38-18.58,0.72L82.89,226.45L82.89,226.45z"/>
<path class="st0" d="M82.74,226.68l-28.4-15.89c-1.31-0.73-2.24-1.63-2.78-2.6c-0.4-0.7-0.6-1.49-0.58-2.29  c0.02-0.78,0.25-1.58,0.68-2.36c0.73-1.31,2.06-2.57,3.97-3.64l88.1-49.25c2.77-1.55,6.28-2.41,9.69-2.54  c3.42-0.13,6.75,0.46,9.17,1.82l38.82,21.73c1.31,0.73,2.24,1.62,2.78,2.6c0.4,0.7,0.6,1.49,0.58,2.29  c-0.02,0.78-0.25,1.58-0.68,2.35c-0.73,1.31-2.07,2.58-3.97,3.64l-88.1,49.25c-2.77,1.55-6.27,2.41-9.69,2.54  c-3.41,0.13-6.74-0.46-9.17-1.82L82.74,226.68L82.74,226.68L82.74,226.68z M54.62,210.3l28.4,15.9l10.42,5.83  c2.33,1.3,5.56,1.88,8.88,1.75s6.74-0.96,9.43-2.47l88.1-49.25c1.81-1.01,3.06-2.2,3.75-3.43c0.39-0.7,0.6-1.4,0.61-2.1  c0.02-0.7-0.16-1.4-0.51-2.01c-0.49-0.88-1.35-1.7-2.56-2.38l-38.82-21.73c-2.33-1.3-5.56-1.88-8.88-1.75  c-3.33,0.13-6.74,0.96-9.43,2.47l-88.1,49.25c-1.81,1.01-3.07,2.2-3.75,3.43c-0.39,0.69-0.6,1.4-0.61,2.1  c-0.01,0.7,0.16,1.4,0.51,2.01C52.55,208.8,53.4,209.62,54.62,210.3L54.62,210.3z"/>
<path class="st1" d="M41.87,162.12h-0.06v11.8c0.01,2.05,1.29,4.01,3.89,5.47l46.95,26.28c5.75,3.22,15.86,2.83,22.47-0.88  l92.26-51.65c3.74-2.1,5.59-4.82,5.44-7.38v-11.82h-0.05c0-2.04-1.26-3.99-3.83-5.43L162,102.25c-5.75-3.22-15.98-2.76-22.72,1.01  l-91.77,51.37C43.69,156.77,41.77,159.54,41.87,162.12L41.87,162.12z"/>
<path class="st0" d="M39.65,162.12c0-0.2,0.03-0.4,0.08-0.58c0.08-1.6,0.7-3.2,1.83-4.71c1.12-1.49,2.76-2.89,4.9-4.09l91.77-51.37  c3.67-2.05,8.26-3.2,12.7-3.4c4.5-0.2,8.9,0.58,12.13,2.39L210,126.65c1.55,0.87,2.73,1.91,3.56,3.08c0.79,1.12,1.24,2.35,1.35,3.63  c0.06,0.19,0.09,0.4,0.09,0.61v11.82l0,0c0.07,1.77-0.51,3.55-1.75,5.22c-1.09,1.48-2.7,2.86-4.8,4.04l-92.27,51.65  c-3.6,2.02-8.14,3.13-12.54,3.3c-4.45,0.17-8.82-0.62-12.05-2.43L44.65,181.3c-1.56-0.88-2.76-1.93-3.59-3.1  c-0.94-1.32-1.4-2.76-1.41-4.26h-0.01L39.65,162.12L39.65,162.12z M43.97,162.62v11.31h-0.01c0,0.59,0.2,1.19,0.61,1.76  c0.46,0.65,1.19,1.27,2.18,1.83l46.94,26.28c2.52,1.41,6.08,2.03,9.78,1.89c3.74-0.15,7.57-1.08,10.57-2.76l92.27-51.65  c1.57-0.88,2.72-1.85,3.45-2.84c0.64-0.87,0.94-1.73,0.9-2.53c0-0.04,0-0.08,0-0.12h-0.01v-11.34c-0.05-0.2-0.06-0.41-0.05-0.62  c-0.03-0.54-0.23-1.09-0.6-1.61c-0.45-0.64-1.16-1.24-2.13-1.79l-46.94-26.28c-2.52-1.41-6.1-2.01-9.84-1.85  c-3.8,0.17-7.69,1.14-10.77,2.86l-91.76,51.37c-1.61,0.9-2.8,1.9-3.57,2.92c-0.68,0.9-1,1.79-0.97,2.61  C44.04,162.24,44.01,162.43,43.97,162.62L43.97,162.62z"/>
<path class="st3" d="M45.55,162.12h-3.74v11.8c0.01,2.05,1.29,4.01,3.89,5.47l46.95,26.28c5.75,3.22,15.86,2.83,22.47-0.88  l92.26-51.65c3.74-2.1,5.59-4.82,5.44-7.38v-11.82h-5.35L162,108.5c-5.75-3.22-15.86-2.83-22.47,0.87l-92.26,51.65  C46.64,161.37,46.07,161.74,45.55,162.12L45.55,162.12z"/>
<path class="st0" d="M45.55,162.4h-3.46v11.52c0,0.99,0.32,1.95,0.96,2.85c0.62,0.87,1.55,1.68,2.8,2.38l46.95,26.28  c2.83,1.58,6.74,2.28,10.77,2.12c4.03-0.15,8.17-1.17,11.43-2.99l92.27-51.65c1.8-1.01,3.15-2.16,4.04-3.36  c0.91-1.23,1.33-2.51,1.26-3.75v-11.55h-5.07c-0.05,0-0.11-0.02-0.15-0.04l-45.47-25.45c-2.83-1.58-6.74-2.28-10.77-2.12  c-4.03,0.16-8.17,1.17-11.43,2.99L47.4,161.27c-0.31,0.17-0.6,0.35-0.88,0.52l-0.01,0.01c-0.27,0.18-0.54,0.36-0.79,0.54  C45.67,162.38,45.61,162.4,45.55,162.4L45.55,162.4z M41.81,161.84h3.65c0.24-0.17,0.48-0.34,0.75-0.51l0.01-0.01  c0.29-0.18,0.59-0.37,0.91-0.54l92.26-51.65c3.34-1.87,7.57-2.91,11.69-3.07c4.12-0.16,8.14,0.56,11.06,2.19l45.41,25.42h5.28  c0.15,0,0.28,0.13,0.28,0.28l0,0v11.82c0.07,1.36-0.39,2.76-1.37,4.1c-0.94,1.27-2.35,2.47-4.22,3.52l-92.26,51.64  c-3.34,1.87-7.57,2.91-11.69,3.07s-8.14-0.56-11.06-2.19l-46.95-26.28c-1.31-0.74-2.31-1.6-2.98-2.54  c-0.71-0.99-1.06-2.07-1.06-3.17v-11.8C41.53,161.97,41.65,161.84,41.81,161.84L41.81,161.84L41.81,161.84z"/>
<path class="st1" d="M92.65,193.63L45.7,167.35c-5.75-3.22-4.94-8.94,1.81-12.72l91.77-51.37c6.75-3.77,16.97-4.23,22.72-1.01  l46.95,26.28c5.75,3.22,4.93,8.94-1.81,12.72l-91.77,51.37C108.62,196.4,98.4,196.85,92.65,193.63L92.65,193.63z"/>
<path class="st0" d="M92.51,193.88L45.56,167.6c-1.55-0.87-2.64-1.92-3.28-3.06c-0.48-0.84-0.72-1.79-0.69-2.76  c0.03-0.95,0.31-1.91,0.83-2.85c0.91-1.63,2.57-3.21,4.95-4.54l91.77-51.37c3.41-1.91,7.7-2.98,11.86-3.17  c4.17-0.18,8.22,0.52,11.14,2.15l46.94,26.28c1.55,0.87,2.64,1.92,3.28,3.07c0.49,0.88,0.72,1.81,0.69,2.76  c-0.02,0.95-0.31,1.91-0.83,2.85c-0.91,1.63-2.57,3.21-4.95,4.54l-91.77,51.37c-3.41,1.91-7.7,2.98-11.86,3.16  C99.48,196.22,95.43,195.52,92.51,193.88L92.51,193.88z M45.84,167.11l46.95,26.28c2.83,1.58,6.77,2.26,10.84,2.08  c4.07-0.18,8.27-1.23,11.61-3.09L207,141.01c2.28-1.28,3.87-2.78,4.73-4.32c0.48-0.86,0.74-1.74,0.76-2.59  c0.02-0.86-0.19-1.72-0.62-2.47c-0.59-1.06-1.61-2.03-3.07-2.85l-46.94-26.28c-2.83-1.58-6.77-2.26-10.84-2.08  c-4.08,0.18-8.27,1.23-11.61,3.1l-91.77,51.37c-2.29,1.28-3.87,2.78-4.74,4.32c-0.48,0.87-0.74,1.74-0.76,2.59  c-0.02,0.86,0.19,1.72,0.62,2.47C43.37,165.32,44.39,166.29,45.84,167.11L45.84,167.11z M176.93,165.98l11.22-6.27l0,0  c0.35-0.2,0.68-0.59,0.92-1.06c0.24-0.48,0.4-1.04,0.4-1.55c0-0.33-0.06-0.59-0.16-0.78c-0.05-0.09-0.12-0.18-0.21-0.24  c-0.08-0.05-0.17-0.07-0.26-0.07c-0.14,0.01-0.28,0.05-0.4,0.12l-0.01,0.01l-11.2,6.26c-0.35,0.2-0.68,0.59-0.92,1.06  c-0.25,0.48-0.38,1.01-0.4,1.55c0,0.33,0.06,0.59,0.17,0.78c0.05,0.1,0.12,0.18,0.21,0.24c0.08,0.05,0.17,0.07,0.26,0.07  C176.64,166.1,176.78,166.06,176.93,165.98L176.93,165.98z M188.41,160.2l-11.22,6.27c-0.24,0.13-0.47,0.19-0.68,0.19  c-0.2,0-0.39-0.06-0.56-0.16c-0.17-0.11-0.3-0.26-0.4-0.44c-0.15-0.27-0.24-0.63-0.24-1.05c0-0.6,0.18-1.25,0.46-1.81  c0.29-0.56,0.69-1.04,1.14-1.29l11.2-6.26l0.02-0.01c0.24-0.13,0.47-0.19,0.68-0.19c0.2,0,0.39,0.06,0.56,0.16  c0.16,0.1,0.29,0.25,0.4,0.44c0.15,0.27,0.24,0.63,0.24,1.05c0,0.6-0.18,1.25-0.46,1.81C189.27,159.47,188.87,159.95,188.41,160.2  L188.41,160.2L188.41,160.2z M194.41,156.19l9.74-5.45c0.35-0.2,0.68-0.59,0.92-1.06c0.25-0.48,0.39-1.01,0.4-1.55  c0-0.33-0.06-0.59-0.17-0.78c-0.05-0.1-0.12-0.18-0.21-0.24c-0.08-0.05-0.17-0.07-0.26-0.07c-0.12,0-0.26,0.04-0.4,0.12l-9.74,5.45  c-0.35,0.2-0.68,0.59-0.92,1.06c-0.24,0.48-0.4,1.04-0.4,1.55c0,0.33,0.06,0.59,0.17,0.78c0.06,0.1,0.13,0.19,0.21,0.24  s0.17,0.07,0.26,0.07C194.13,156.31,194.27,156.27,194.41,156.19L194.41,156.19z M204.43,151.23l-9.74,5.46  c-0.21,0.12-0.44,0.19-0.68,0.2c-0.2,0-0.39-0.06-0.56-0.16c-0.17-0.11-0.3-0.26-0.4-0.43c-0.15-0.27-0.24-0.63-0.24-1.05  c0-0.6,0.18-1.25,0.46-1.81c0.29-0.56,0.69-1.04,1.14-1.29l9.74-5.46c0.23-0.13,0.46-0.19,0.68-0.19c0.2,0,0.39,0.05,0.56,0.16  c0.16,0.1,0.29,0.25,0.4,0.44c0.15,0.27,0.24,0.63,0.24,1.05c0,0.6-0.18,1.25-0.46,1.81C205.29,150.5,204.88,150.98,204.43,151.23  L204.43,151.23z"/>
<path class="st0" d="M150.48,141.67c3.81,0,7.25-0.87,9.74-2.27c2.44-1.37,3.95-3.26,3.95-5.32c0-2.06-1.51-3.94-3.95-5.32  c-2.49-1.4-5.93-2.27-9.74-2.27s-7.25,0.87-9.74,2.27c-2.44,1.37-3.95,3.25-3.95,5.32c0,2.06,1.51,3.94,3.95,5.32  C143.23,140.81,146.67,141.67,150.48,141.67z M160.49,139.9c-2.57,1.44-6.11,2.34-10.01,2.34s-7.44-0.9-10.01-2.34  c-2.62-1.48-4.23-3.53-4.23-5.81s1.62-4.33,4.23-5.81c2.57-1.45,6.11-2.34,10.01-2.34s7.45,0.89,10.01,2.34  c2.62,1.47,4.23,3.53,4.23,5.81S163.11,138.42,160.49,139.9L160.49,139.9z"/>
<path class="st0" d="M150.64,132.96c0,0.15-0.13,0.28-0.28,0.28s-0.28-0.13-0.28-0.28V89.94c0-0.15,0.13-0.28,0.28-0.28  s0.28,0.13,0.28,0.28V132.96z"/>
<path class="st4" d="M150.48,135.8c1.8,0,3.26-0.82,3.26-1.84c0-1.02-1.46-1.84-3.26-1.84s-3.26,0.82-3.26,1.84  S148.68,135.8,150.48,135.8z"/>
<path class="st1" d="M138.81,125.14l-46.44-26c-2.35-1.32-3.59-3.05-3.77-4.9v-0.01c-0.03-0.31-0.03-0.62,0-0.92v-4.6  c-0.25-2.63,1.65-5.48,5.56-7.67l44.77-25.05c6.68-3.74,16.79-4.19,22.48-1l46.44,26c2.61,1.46,3.85,3.44,3.79,5.52v5.23  c0,0.09,0,0.17,0,0.26v0.03c-0.07,2.46-1.96,5.05-5.58,7.07l-44.77,25.05C154.61,127.87,144.5,128.32,138.81,125.14L138.81,125.14z   M142.2,109.93l-32.52-18.2c-0.54-0.3-1.04-0.67-1.48-1.11c0.65-0.78,1.56-1.53,2.74-2.18l31.34-17.54  c4.68-2.61,11.76-2.93,15.74-0.7l32.51,18.2c0.55,0.3,1.05,0.67,1.49,1.11c-0.65,0.78-1.56,1.52-2.74,2.18l-31.34,17.54  C153.27,111.84,146.18,112.16,142.2,109.93L142.2,109.93z"/>
<path class="st0" d="M137.75,127.02l-46.44-26c-1.41-0.79-2.51-1.73-3.31-2.77c-0.85-1.1-1.35-2.31-1.52-3.57  c-0.03-0.15-0.04-0.29-0.04-0.44v-0.01c-0.01-0.15-0.02-0.31-0.02-0.46s0.01-0.31,0.02-0.46v-4.62c-0.11-1.8,0.45-3.62,1.69-5.32  c1.11-1.53,2.78-2.97,4.98-4.21l0,0l44.77-25.05c3.63-2.03,8.18-3.17,12.57-3.37c4.46-0.2,8.82,0.57,12.02,2.37l46.44,26  c1.58,0.88,2.77,1.95,3.59,3.14c0.87,1.27,1.3,2.66,1.3,4.1c0,0.06,0.01,0.11,0.01,0.17v5.31c0,0.02,0-0.02,0,0.04  c0,0.14,0-0.04-0.01,0.13h0.01v0.02c0,0.1-0.01,0.2-0.02,0.29c-0.1,1.64-0.76,3.28-1.97,4.81c-1.1,1.4-2.68,2.71-4.7,3.85l0,0  l-44.77,25.05c-3.63,2.03-8.18,3.17-12.57,3.36C145.32,129.59,140.96,128.81,137.75,127.02L137.75,127.02z M93.42,97.25l46.44,26  c2.49,1.39,6.03,1.99,9.72,1.82c3.75-0.17,7.6-1.13,10.65-2.83L205,97.2l0,0h0.01c1.52-0.85,2.66-1.79,3.42-2.75  c0.64-0.81,0.99-1.61,1.04-2.36v-0.07c0-0.04,0-0.07,0-0.11v-0.08c0-0.03,0-0.06,0-0.09v-5.23h0.01v-0.06  c0.02-0.6-0.16-1.2-0.55-1.77c-0.44-0.64-1.15-1.26-2.13-1.81l-46.44-26c-2.49-1.39-6.03-1.99-9.72-1.82  c-3.75,0.17-7.6,1.12-10.65,2.83L95.22,82.93v-0.01h-0.01c-1.63,0.91-2.83,1.93-3.58,2.97c-0.62,0.85-0.92,1.69-0.89,2.47  c0.02,0.11,0.03,0.22,0.03,0.34v4.6h-0.01c0,0.06,0,0.13-0.01,0.19c-0.01,0.14-0.01,0.29,0,0.43c0.01,0.07,0.02,0.15,0.02,0.23  c0.07,0.49,0.29,0.99,0.65,1.46C91.86,96.2,92.53,96.75,93.42,97.25L93.42,97.25z M141.14,111.81l-32.51-18.2  c-0.36-0.2-0.71-0.43-1.05-0.68c-0.33-0.24-0.63-0.51-0.92-0.81c-0.81-0.83-0.83-2.14-0.04-2.99c0.42-0.48,0.89-0.94,1.42-1.37  c0.53-0.42,1.14-0.83,1.84-1.22l0,0l31.34-17.53c2.63-1.47,5.92-2.3,9.09-2.44c3.23-0.14,6.41,0.42,8.76,1.74l32.52,18.2  c0.36,0.2,0.71,0.43,1.05,0.68c0.32,0.24,0.63,0.51,0.92,0.81c0.81,0.83,0.82,2.15,0.04,2.99c-0.43,0.5-0.91,0.96-1.42,1.37  c-0.58,0.46-1.19,0.86-1.84,1.22l0,0L159,111.11c-2.63,1.47-5.92,2.3-9.09,2.44C146.67,113.69,143.49,113.13,141.14,111.81  L141.14,111.81z M111.79,90.43l31.46,17.61c1.63,0.92,3.99,1.3,6.46,1.19c2.53-0.11,5.12-0.75,7.16-1.89l31.34-17.54l0,0h0.01  c0.06-0.04,0.13-0.07,0.19-0.11l-31.46-17.61c-1.64-0.92-3.99-1.31-6.46-1.2c-2.53,0.11-5.12,0.76-7.16,1.9l-31.34,17.54l0,0l0,0  C111.92,90.36,111.85,90.39,111.79,90.43L111.79,90.43z"/>
<path class="st3" d="M138.81,125.14l-46.44-26c-2.35-1.32-3.59-3.05-3.77-4.9v-0.01c-0.03-0.31-0.03-0.62,0-0.92v-4.83h2.82  c0.84-0.73,1.76-1.38,2.74-1.92l44.77-25.05c6.68-3.74,16.79-4.19,22.48-1l46.44,26h0.01h3.79v5.23c0,0.09,0,0.17,0,0.26v0.02  c-0.07,2.46-1.96,5.05-5.58,7.07l-44.77,25.05C154.61,127.87,144.5,128.32,138.81,125.14L138.81,125.14z M142.2,115.45l-32.52-18.2  c-3.98-2.23-3.42-6.19,1.26-8.81l31.34-17.54c4.68-2.61,11.76-2.93,15.74-0.7l32.51,18.2c3.99,2.23,3.42,6.19-1.25,8.81  l-31.34,17.54C153.26,117.36,146.18,117.68,142.2,115.45L142.2,115.45z"/>
<path class="st0" d="M138.67,125.38l-46.44-26c-1.19-0.67-2.1-1.44-2.75-2.28c-0.67-0.88-1.06-1.82-1.16-2.81  c0-0.02-0.01-0.04-0.01-0.06v-0.01c-0.03-0.31-0.03-0.62,0-0.93v-4.83c0-0.15,0.13-0.28,0.28-0.28h2.72  c0.37-0.32,0.78-0.64,1.22-0.94c0.46-0.32,0.96-0.64,1.49-0.93l44.77-25.05c3.38-1.89,7.62-2.95,11.73-3.13  c4.12-0.18,8.13,0.51,11.02,2.13l46.38,25.96h3.71c0.15,0,0.28,0.13,0.28,0.28v5.24c0,0.06,0,0.09,0,0.11v0.13V92  c0,0.01,0,0.03,0,0.04c-0.05,1.3-0.57,2.63-1.57,3.9c-0.96,1.21-2.34,2.36-4.15,3.37l-44.77,25.05c-3.38,1.89-7.62,2.95-11.74,3.13  C145.57,127.69,141.56,127,138.67,125.38L138.67,125.38z M92.5,98.9l46.44,26c2.8,1.57,6.69,2.24,10.72,2.06s8.18-1.21,11.48-3.06  l44.77-25.05c1.74-0.97,3.07-2.08,3.98-3.23c0.93-1.17,1.42-2.39,1.45-3.58V92l0,0v-5.21h-3.5c-0.04,0-0.08-0.01-0.12-0.03  l-0.03-0.01l-46.44-26c-2.8-1.57-6.69-2.24-10.72-2.06s-8.19,1.22-11.48,3.06L94.29,86.8c-0.52,0.29-1,0.59-1.44,0.9  c-0.44,0.31-0.85,0.63-1.23,0.96c-0.05,0.06-0.12,0.09-0.2,0.09h-2.54v4.57c-0.03,0.3-0.03,0.6,0,0.89  c0.09,0.89,0.43,1.75,1.05,2.54C90.53,97.54,91.39,98.27,92.5,98.9L92.5,98.9z M211.91,92.06c-0.02,0.14-0.14,0.24-0.28,0.24  L211.91,92.06L211.91,92.06z M142.06,115.69l-32.52-18.2c-1.09-0.61-1.85-1.35-2.31-2.16c-0.34-0.59-0.51-1.27-0.49-1.96  c0.02-0.67,0.22-1.35,0.59-2.01c0.64-1.14,1.8-2.25,3.46-3.17l31.34-17.54c2.38-1.33,5.36-2.07,8.25-2.2  c2.9-0.13,5.72,0.36,7.76,1.5l32.51,18.2c1.09,0.61,1.85,1.35,2.31,2.16c0.35,0.62,0.51,1.28,0.49,1.96  c-0.02,0.67-0.22,1.35-0.59,2.01c-0.64,1.14-1.8,2.25-3.46,3.18L158.06,115c-2.38,1.33-5.36,2.07-8.25,2.2  C146.92,117.32,144.1,116.83,142.06,115.69L142.06,115.69z M109.82,97l32.51,18.2c1.94,1.09,4.66,1.56,7.46,1.43  c2.81-0.12,5.7-0.85,8-2.13l31.34-17.54c1.57-0.88,2.65-1.91,3.25-2.96c0.33-0.59,0.5-1.18,0.52-1.75c0.02-0.58-0.13-1.16-0.42-1.67  c-0.4-0.72-1.1-1.39-2.09-1.94l-32.52-18.2c-1.95-1.09-4.66-1.56-7.46-1.43c-2.81,0.12-5.71,0.85-8,2.13l-31.34,17.54  c-1.57,0.88-2.66,1.9-3.25,2.96c-0.33,0.58-0.5,1.18-0.52,1.75c-0.01,0.58,0.13,1.16,0.42,1.66C108.13,95.78,108.83,96.44,109.82,97  L109.82,97z"/>
<path class="st1" d="M138.81,119.62l-46.44-26c-5.69-3.18-4.89-8.85,1.79-12.58l44.77-25.05c6.68-3.74,16.79-4.19,22.48-1l46.44,26  c5.69,3.18,4.88,8.85-1.79,12.58l-44.77,25.05C154.61,122.35,144.5,122.8,138.81,119.62L138.81,119.62z M142.2,109.93l-32.52-18.2  c-3.98-2.23-3.42-6.19,1.26-8.81l31.34-17.54c4.68-2.61,11.76-2.93,15.74-0.7l32.51,18.2c3.98,2.23,3.42,6.2-1.25,8.81l-31.34,17.54  C153.26,111.84,146.18,112.16,142.2,109.93L142.2,109.93z"/>
<path class="st0" d="M138.67,119.86l-46.44-26c-1.53-0.86-2.61-1.9-3.25-3.03c-0.47-0.83-0.71-1.77-0.68-2.73  c0.03-0.93,0.3-1.89,0.82-2.82c0.9-1.61,2.54-3.17,4.9-4.49l44.77-25.05c3.38-1.89,7.62-2.95,11.73-3.13  c4.12-0.19,8.13,0.51,11.02,2.13l46.44,25.99c1.53,0.86,2.61,1.9,3.25,3.03l0.01,0.01c0.47,0.83,0.7,1.76,0.68,2.71  c-0.03,0.94-0.3,1.89-0.82,2.82c-0.9,1.61-2.55,3.17-4.9,4.49l-44.77,25.05c-3.38,1.89-7.62,2.95-11.74,3.13  C145.56,122.17,141.56,121.48,138.67,119.86L138.67,119.86z M92.5,93.38l46.44,26c2.8,1.57,6.69,2.24,10.72,2.06  s8.18-1.21,11.48-3.06l44.77-25.05c2.26-1.26,3.83-2.75,4.68-4.28c0.48-0.85,0.73-1.72,0.75-2.56c0.02-0.85-0.19-1.69-0.6-2.43  l-0.01-0.01c-0.58-1.05-1.59-2.01-3.03-2.82l-46.44-26c-2.8-1.57-6.69-2.24-10.72-2.06s-8.18,1.22-11.48,3.06L94.29,81.28  c-2.26,1.26-3.83,2.75-4.69,4.27c-0.48,0.86-0.73,1.72-0.76,2.56c-0.02,0.84,0.18,1.66,0.62,2.44  C90.05,91.61,91.06,92.57,92.5,93.38L92.5,93.38z M142.06,110.17l-32.52-18.2c-1.09-0.61-1.85-1.35-2.31-2.15l-0.01-0.01  c-0.33-0.59-0.5-1.26-0.48-1.94c0.02-0.67,0.21-1.35,0.59-2.01c0.64-1.14,1.8-2.24,3.46-3.17l31.34-17.54  c2.38-1.33,5.36-2.07,8.25-2.2c2.9-0.13,5.72,0.36,7.76,1.5l32.51,18.2c1.09,0.61,1.85,1.35,2.31,2.15  c0.35,0.62,0.51,1.28,0.49,1.95c-0.02,0.67-0.22,1.35-0.59,2.01c-0.64,1.14-1.8,2.25-3.46,3.18l-31.34,17.54  c-2.38,1.33-5.36,2.07-8.25,2.2C146.92,111.8,144.1,111.31,142.06,110.17L142.06,110.17z M109.82,91.48l32.51,18.2  c1.95,1.09,4.66,1.56,7.46,1.43c2.81-0.13,5.71-0.85,8-2.13l31.34-17.53c1.57-0.88,2.66-1.9,3.25-2.96c0.33-0.58,0.5-1.18,0.52-1.75  c0.02-0.58-0.13-1.16-0.42-1.67c-0.4-0.72-1.1-1.39-2.09-1.94l-32.52-18.2c-1.95-1.09-4.66-1.56-7.46-1.43  c-2.81,0.12-5.71,0.85-8,2.13l-31.34,17.54c-1.57,0.88-2.66,1.91-3.25,2.96c-0.33,0.58-0.5,1.18-0.52,1.75  c-0.01,0.58,0.13,1.15,0.41,1.65l0.01,0.01C108.13,90.26,108.83,90.92,109.82,91.48L109.82,91.48z"/>
<path class="st5" d="M143.16,79.22l-28.55-15.98c-1.44-0.81-2.21-1.88-2.32-3.01v-0.01c-0.02-0.19-0.02-0.38,0-0.57v-2.97h1.74  c0.52-0.45,1.08-0.85,1.68-1.18l27.52-15.4c4.1-2.29,10.32-2.57,13.82-0.62l28.56,15.98l0,0h2.32v3.21c0,0.05,0,0.11,0,0.16v0.02  c-0.04,1.51-1.21,3.1-3.43,4.35l-27.52,15.4C152.88,80.9,146.66,81.18,143.16,79.22L143.16,79.22z M145.24,73.26l-19.99-11.19  c-2.45-1.37-2.1-3.81,0.77-5.42l19.27-10.78c2.87-1.61,7.23-1.8,9.68-0.43l19.99,11.19c2.45,1.37,2.1,3.81-0.77,5.42l-19.27,10.78  C152.05,74.44,147.69,74.63,145.24,73.26L145.24,73.26z"/>
<path class="st6" d="M143.16,75.83l-28.55-15.98c-3.5-1.96-3-5.44,1.1-7.74l27.52-15.4c4.1-2.29,10.32-2.57,13.82-0.62l28.56,15.98  c3.5,1.96,3,5.44-1.1,7.74l-27.52,15.4C152.88,77.51,146.66,77.79,143.16,75.83L143.16,75.83z"/>
<path class="st4" d="M150.48,92.09c2.32,0,4.2-1.06,4.2-2.36c0-1.31-1.88-2.36-4.2-2.36s-4.19,1.06-4.19,2.36  S148.16,92.09,150.48,92.09L150.48,92.09z"/>
<path class="st7" d="M150.1,91.65c1.08,0,2.06-0.24,2.76-0.64c0.62-0.35,1.01-0.81,1.01-1.3c0-0.49-0.39-0.94-1.01-1.29  c-0.7-0.39-1.67-0.64-2.76-0.64c-1.08,0-2.06,0.24-2.75,0.64c-0.62,0.35-1.01,0.81-1.01,1.29s0.39,0.94,1.01,1.29  C148.05,91.4,149.02,91.65,150.1,91.65L150.1,91.65z M153.29,91.77c-0.82,0.46-1.95,0.75-3.18,0.75s-2.36-0.29-3.18-0.75  c-0.89-0.5-1.45-1.23-1.45-2.05s0.55-1.54,1.45-2.05c0.82-0.46,1.95-0.75,3.18-0.75s2.36,0.29,3.18,0.75  c0.89,0.5,1.45,1.23,1.45,2.05C154.73,90.54,154.18,91.27,153.29,91.77z"/>
<path class="st1" d="M150.1,58.04c2.72,0,4.92-1.24,4.92-2.77s-2.2-2.77-4.92-2.77s-4.92,1.24-4.92,2.77S147.39,58.04,150.1,58.04z"/>
<path class="st1" d="M89.34,139.93l50.35,28.35c1.27,0.71,1.09,1.98-0.39,2.81l-7.29,4.1c-1.48,0.83-3.73,0.93-4.99,0.22  l-50.36-28.35c-1.27-0.71-1.09-1.98,0.39-2.81l7.29-4.1C85.83,139.31,88.07,139.21,89.34,139.93L89.34,139.93z"/>
<path class="st0" d="M89.48,139.68l50.35,28.35c0.38,0.21,0.64,0.47,0.81,0.76c0.13,0.23,0.19,0.48,0.18,0.73  c-0.01,0.26-0.08,0.51-0.21,0.74c-0.22,0.39-0.61,0.77-1.17,1.08l-7.29,4.1c-0.78,0.44-1.76,0.68-2.71,0.73  c-0.96,0.04-1.89-0.12-2.57-0.51l-50.35-28.35c-0.38-0.21-0.64-0.47-0.81-0.76c-0.13-0.22-0.19-0.47-0.18-0.73  c0-0.25,0.08-0.5,0.21-0.74c0.22-0.39,0.61-0.77,1.17-1.08l7.29-4.1c0.78-0.44,1.75-0.68,2.7-0.73  C87.87,139.14,88.8,139.3,89.48,139.68L89.48,139.68z M139.56,168.52l-50.35-28.35c-0.59-0.33-1.41-0.47-2.27-0.43  c-0.86,0.04-1.75,0.26-2.45,0.65l-7.29,4.1c-0.46,0.26-0.78,0.56-0.95,0.86c-0.09,0.16-0.14,0.33-0.14,0.48s0.04,0.31,0.11,0.44  c0.11,0.2,0.31,0.38,0.59,0.54l50.36,28.35c0.59,0.33,1.41,0.47,2.27,0.44c0.86-0.04,1.75-0.26,2.45-0.66l7.29-4.1  c0.46-0.26,0.78-0.56,0.95-0.86c0.09-0.16,0.14-0.32,0.14-0.48c0.01-0.15-0.03-0.3-0.11-0.44  C140.04,168.86,139.85,168.68,139.56,168.52L139.56,168.52z"/>
<path class="st1" d="M70.51,151.78l38.98,21.94l12.22,5.38v2.22c0,0.56-0.42,1.15-1.24,1.61l-7.29,4.1  c-1.48,0.83-3.73,0.93-4.99,0.22l-50.35-28.34c-0.64-0.36-0.92-0.87-0.83-1.38L57,155.39l2.36,0.08l6.16-3.47  C66.99,151.17,69.24,151.07,70.51,151.78z"/>
<path class="st0" d="M70.64,151.54l38.97,21.94l12.2,5.38l0.17,0.07v0.18l0.01,2.22v0.28h-0.03c-0.05,0.26-0.17,0.51-0.35,0.75  c-0.23,0.3-0.56,0.58-1,0.83l-7.29,4.1c-0.78,0.44-1.76,0.68-2.7,0.73c-0.95,0.04-1.89-0.12-2.56-0.51L57.7,159.16  c-0.36-0.2-0.62-0.45-0.78-0.72c-0.17-0.28-0.24-0.6-0.19-0.93l-0.01-2.12v-0.29l0.29,0.01l2.28,0.07l6.1-3.43  c0.78-0.44,1.76-0.68,2.7-0.73C69.03,150.99,69.96,151.16,70.64,151.54L70.64,151.54z M109.35,173.97l-38.98-21.94  c-0.59-0.33-1.41-0.47-2.27-0.43c-0.86,0.04-1.75,0.26-2.45,0.65l-6.16,3.47l-0.15,0.03l-2.07-0.07l0.01,1.73l0.02,0.02l-0.02,0.14  c-0.03,0.2,0.01,0.4,0.12,0.57c0.11,0.19,0.3,0.37,0.57,0.52l50.36,28.35c0.59,0.33,1.41,0.47,2.27,0.43  c0.86-0.04,1.75-0.26,2.45-0.65l7.29-4.1c0.36-0.21,0.64-0.44,0.83-0.68c0.18-0.23,0.27-0.47,0.27-0.69v-0.28v-1.75l-12.05-5.31  L109.35,173.97L109.35,173.97z"/>
<path class="st1" d="M70.51,149.46l50.36,28.34c1.26,0.71,1.09,1.98-0.39,2.81l-7.29,4.1c-1.48,0.83-3.73,0.93-4.99,0.22  l-50.35-28.35c-1.27-0.71-1.09-1.98,0.39-2.81l7.29-4.1C66.99,148.84,69.24,148.74,70.51,149.46L70.51,149.46z"/>
<path class="st0" d="M70.64,149.21L121,177.56c0.37,0.21,0.64,0.47,0.8,0.76c0.13,0.23,0.19,0.48,0.18,0.73  c-0.01,0.26-0.08,0.51-0.21,0.74c-0.22,0.39-0.61,0.76-1.16,1.07l-7.29,4.1c-0.78,0.44-1.76,0.68-2.7,0.73  c-0.95,0.04-1.89-0.12-2.57-0.51L57.7,156.84c-0.38-0.21-0.64-0.47-0.81-0.76c-0.13-0.22-0.19-0.47-0.18-0.73  c0.01-0.25,0.08-0.5,0.22-0.74c0.22-0.39,0.61-0.76,1.16-1.08l7.29-4.1c0.78-0.44,1.76-0.68,2.7-0.73  C69.03,148.67,69.97,148.83,70.64,149.21L70.64,149.21z M120.72,178.05l-50.35-28.34c-0.59-0.33-1.41-0.47-2.27-0.43  c-0.86,0.04-1.75,0.26-2.45,0.65l-7.28,4.1c-0.46,0.26-0.78,0.56-0.95,0.86c-0.09,0.16-0.14,0.32-0.15,0.48  c0,0.15,0.04,0.3,0.11,0.44c0.11,0.2,0.31,0.38,0.59,0.54l50.36,28.34c0.59,0.33,1.41,0.47,2.27,0.43c0.86-0.04,1.75-0.26,2.45-0.65  l7.29-4.1c0.46-0.26,0.78-0.56,0.95-0.86c0.09-0.15,0.13-0.31,0.14-0.48c0-0.15-0.03-0.3-0.11-0.44  C121.2,178.39,121.01,178.21,120.72,178.05L120.72,178.05z M129.62,167.86c0,0.16-0.13,0.28-0.28,0.28c-0.16,0-0.28-0.13-0.28-0.28  l0,0v-30.13c0-0.16,0.13-0.28,0.28-0.28c0.16,0,0.28,0.13,0.28,0.28V167.86L129.62,167.86z"/>
<path class="st4" d="M129.34,170.22c1.11,0,2-0.51,2-1.13c0-0.62-0.9-1.13-2-1.13c-1.11,0-2,0.5-2,1.13  C127.33,169.71,128.23,170.22,129.34,170.22L129.34,170.22z"/>
<path class="st7" d="M87.89,144.22c0,0.16-0.13,0.28-0.28,0.28c-0.16,0-0.28-0.13-0.28-0.28v-28.28c0-0.16,0.13-0.28,0.28-0.28  c0.16,0,0.28,0.13,0.28,0.28l0,0V144.22L87.89,144.22z"/>
<path class="st4" d="M87.43,146.95c1.1,0,1.99-0.5,1.99-1.12s-0.89-1.12-1.99-1.12s-1.98,0.5-1.98,1.12S86.34,146.95,87.43,146.95  L87.43,146.95z"/>
<path class="st1" d="M89.34,110l38.98,21.94l12.22,5.38v2.22c0,0.56-0.42,1.15-1.23,1.61l-7.29,4.1c-1.48,0.83-3.73,0.93-4.99,0.22  l-50.36-28.35c-0.64-0.36-0.91-0.86-0.83-1.38l-0.01-2.14l2.36,0.08l6.16-3.47C85.83,109.39,88.07,109.29,89.34,110L89.34,110z"/>
<path class="st0" d="M89.48,109.75l38.97,21.94l12.2,5.38l0.17,0.07v0.18v2.22v0.28h-0.03c-0.05,0.25-0.17,0.51-0.35,0.75  c-0.23,0.3-0.57,0.58-1,0.83l-7.29,4.1c-0.78,0.44-1.76,0.68-2.71,0.72c-0.95,0.04-1.89-0.12-2.57-0.51l-50.35-28.34  c-0.36-0.2-0.62-0.45-0.78-0.72l0,0c-0.17-0.28-0.24-0.6-0.19-0.93l-0.01-2.12v-0.29l0.29,0.01l2.28,0.07l6.09-3.43  c0.78-0.44,1.75-0.68,2.7-0.72C87.87,109.21,88.8,109.37,89.48,109.75L89.48,109.75z M128.19,132.19l-38.98-21.94  c-0.59-0.33-1.41-0.47-2.27-0.43c-0.86,0.04-1.75,0.26-2.45,0.65l-6.16,3.47l-0.15,0.04l-2.07-0.07l0.01,1.73l0.02,0.02l-0.02,0.14  c-0.03,0.2,0.01,0.4,0.11,0.58c0.11,0.19,0.31,0.37,0.58,0.52l50.36,28.34c0.59,0.33,1.41,0.48,2.27,0.44s1.75-0.26,2.45-0.65  l7.29-4.1c0.37-0.21,0.65-0.44,0.83-0.68c0.18-0.23,0.27-0.46,0.27-0.69v-0.28v-1.75l-12.05-5.31L128.19,132.19L128.19,132.19z"/>
<path class="st1" d="M89.34,107.67l50.35,28.34c1.27,0.71,1.09,1.98-0.39,2.81l-7.29,4.1c-1.48,0.83-3.73,0.93-4.99,0.22  l-50.36-28.35c-1.27-0.71-1.09-1.98,0.39-2.81l7.29-4.1C85.83,107.06,88.07,106.96,89.34,107.67L89.34,107.67z"/>
<path class="st0" d="M89.48,107.43l50.35,28.35c0.38,0.21,0.64,0.47,0.81,0.76c0.13,0.23,0.19,0.48,0.18,0.73  c-0.01,0.25-0.08,0.5-0.21,0.74c-0.22,0.39-0.61,0.76-1.17,1.08l-7.29,4.1c-0.78,0.44-1.76,0.68-2.71,0.73  c-0.96,0.04-1.89-0.12-2.57-0.51l-50.36-28.34c-0.38-0.21-0.64-0.47-0.81-0.76c-0.13-0.22-0.19-0.47-0.18-0.73s0.08-0.51,0.21-0.74  c0.22-0.39,0.61-0.76,1.17-1.07l7.29-4.1c0.78-0.44,1.75-0.68,2.7-0.72C87.87,106.88,88.8,107.05,89.48,107.43L89.48,107.43z   M139.56,136.26l-50.35-28.35c-0.59-0.33-1.41-0.47-2.27-0.43c-0.86,0.04-1.75,0.26-2.45,0.65l-7.29,4.1  c-0.46,0.26-0.78,0.56-0.95,0.86c-0.09,0.15-0.14,0.31-0.14,0.48c0,0.15,0.04,0.3,0.11,0.44c0.11,0.2,0.31,0.39,0.59,0.54  l50.36,28.35c0.59,0.33,1.41,0.47,2.27,0.43c0.86-0.04,1.75-0.26,2.45-0.65l7.29-4.1c0.46-0.26,0.78-0.56,0.95-0.86  c0.09-0.15,0.14-0.31,0.14-0.48c0.01-0.15-0.03-0.31-0.11-0.44C140.04,136.61,139.85,136.43,139.56,136.26L139.56,136.26z"/>
<path class="st4" d="M129.34,138.11c1.2,0,2.18-0.55,2.18-1.23s-0.98-1.23-2.18-1.23s-2.18,0.55-2.18,1.23  S128.13,138.11,129.34,138.11L129.34,138.11z M87.1,114.75c1.22,0,2.21-0.56,2.21-1.25s-0.99-1.24-2.21-1.24s-2.21,0.56-2.21,1.24  C84.89,114.2,85.88,114.75,87.1,114.75L87.1,114.75z"/>
<path class="st1" d="M150.1,13.26c1.68,0,3.05-0.77,3.05-1.72s-1.37-1.72-3.05-1.72s-3.04,0.77-3.04,1.72  C147.06,12.49,148.43,13.26,150.1,13.26L150.1,13.26z"/>
</svg>